<svg width="150" height="150" viewBox="0 0 150 150" xmlns="http://www.w3.org/2000/svg"><mask id="satori_om-id"><rect x="0" y="0" width="150" height="150" fill="#fff"/></mask><rect x="0" y="0" width="150" height="150" fill="#212121"/><clipPath id="satori_bct-id-0"><path d="M37.9 68.0L32.0 86.0L26.8 86.0L34.8 62.7L41.1 62.7L49.2 86.0L43.9 86.0L38.1 68.0L37.9 68.0ZM31.7 80.6L31.7 76.8L44.2 76.8L44.2 80.6L31.7 80.6ZM56.7 75.9L56.7 75.9L56.7 86.0L51.9 86.0L51.9 68.5L56.5 68.5L56.5 71.6L56.7 71.6Q57.3 70.1 58.6 69.2Q60.0 68.3 61.9 68.3L61.9 68.3Q63.8 68.3 65.1 69.1Q66.5 69.9 67.2 71.3Q68.0 72.8 68.0 74.8L68.0 74.8L68.0 86.0L63.1 86.0L63.1 75.7Q63.1 74.1 62.3 73.2Q61.5 72.3 60.0 72.3L60.0 72.3Q59.0 72.3 58.3 72.7Q57.5 73.1 57.1 73.9Q56.7 74.7 56.7 75.9ZM76.6 86.0L71.8 86.0L71.8 68.5L76.6 68.5L76.6 86.0ZM74.2 66.2L74.2 66.2Q73.1 66.2 72.3 65.5Q71.6 64.8 71.6 63.8L71.6 63.8Q71.6 62.8 72.3 62.1Q73.1 61.3 74.2 61.3L74.2 61.3Q75.3 61.3 76.0 62.1Q76.8 62.8 76.8 63.8L76.8 63.8Q76.8 64.8 76.0 65.5Q75.3 66.2 74.2 66.2ZM79.2 68.5L89.8 68.5L89.8 72.1L79.2 72.1L79.2 68.5ZM81.6 81.2L81.6 64.3L86.5 64.3L86.5 80.6Q86.5 81.3 86.7 81.6Q86.9 82.0 87.2 82.1Q87.6 82.3 88.1 82.3L88.1 82.3Q88.4 82.3 88.8 82.2Q89.1 82.2 89.3 82.1L89.3 82.1L90.1 85.7Q89.7 85.8 89.0 86.0Q88.4 86.2 87.4 86.2L87.4 86.2Q85.7 86.3 84.4 85.7Q83.1 85.2 82.3 84.1Q81.6 82.9 81.6 81.2L81.6 81.2ZM100.6 86.3L100.6 86.3Q98.0 86.3 96.0 85.2Q94.1 84.0 93.1 82.0Q92.0 80.0 92.0 77.3L92.0 77.3Q92.0 74.6 93.1 72.6Q94.1 70.5 96.0 69.4Q98.0 68.3 100.6 68.3L100.6 68.3Q103.3 68.3 105.2 69.4Q107.1 70.5 108.1 72.6Q109.2 74.6 109.2 77.3L109.2 77.3Q109.2 80.0 108.1 82.0Q107.1 84.0 105.2 85.2Q103.3 86.3 100.6 86.3ZM100.6 82.5L100.6 82.5Q101.8 82.5 102.6 81.9Q103.4 81.2 103.9 80.0Q104.3 78.8 104.3 77.3L104.3 77.3Q104.3 75.7 103.9 74.5Q103.4 73.3 102.6 72.7Q101.8 72.0 100.6 72.0L100.6 72.0Q99.4 72.0 98.6 72.7Q97.8 73.3 97.3 74.5Q96.9 75.7 96.9 77.3L96.9 77.3Q96.9 78.8 97.3 80.0Q97.8 81.2 98.6 81.9Q99.4 82.5 100.6 82.5ZM117.2 86.0L112.4 86.0L112.4 68.5L117.0 68.5L117.0 71.5L117.2 71.5Q117.7 69.9 118.8 69.1Q120.0 68.2 121.4 68.2L121.4 68.2Q121.8 68.2 122.2 68.3Q122.6 68.3 122.9 68.4L122.9 68.4L122.9 72.7Q122.6 72.6 122.0 72.5Q121.4 72.5 120.9 72.5L120.9 72.5Q119.8 72.5 119.0 72.9Q118.2 73.4 117.7 74.2Q117.2 75.0 117.2 76.1L117.2 76.1L117.2 86.0Z "/></clipPath><defs><pattern id="satori_pattern_id-0_0" x="0" y="0" width="1" height="1" patternUnits="objectBoundingBox"><linearGradient id="satori_biid-0_0" x1="1.2048250213549256" y1="0.5567599266386832" x2="0" y2="0"><stop offset="0%" stop-color="rgba(255,255,255,1)"/><stop offset="56.00000000000001%" stop-color="rgba(255,255,255,1)"/><stop offset="56.00000000000001%" stop-color="rgba(187,134,252,1)"/><stop offset="100%" stop-color="rgba(187,134,252,1)"/></linearGradient><rect x="0" y="0" width="98" height="38" fill="url(#satori_biid-0_0)"/></pattern></defs><mask id="satori_om-id-0"><rect x="26" y="56" width="98" height="38" fill="#fff"/></mask><rect x="26" y="56" width="98" height="38" fill="url(#satori_pattern_id-0_0)" clip-path="url(#satori_bct-id-0)"/></svg>